<svg id="visual" viewBox="0 0 900 600" width="900" height="600" xmlns="http://www.w3.org/2000/svg" xmlns:xlink="http://www.w3.org/1999/xlink" version="1.1"><g stroke-width="1" stroke-linejoin="bevel"><path d="M476.3 300.1L498.1 297.1L497.7 279.8Z" fill="#0c2435" stroke="#0c2435"></path><path d="M497.7 279.8L459.7 265.9L476.3 300.1Z" fill="#246688" stroke="#246688"></path><path d="M534.4 239.9L513.1 245.8L497.7 279.8Z" fill="#112e42" stroke="#112e42"></path><path d="M497.7 279.8L513.1 245.8L459.7 265.9Z" fill="#112e42" stroke="#112e42"></path><path d="M476.3 300.1L515.7 344.1L498.1 297.1Z" fill="#0c2435" stroke="#0c2435"></path><path d="M579.8 271.9L534.4 239.9L497.7 279.8Z" fill="#15384f" stroke="#15384f"></path><path d="M552.1 320.9L497.7 279.8L498.1 297.1Z" fill="#112e42" stroke="#112e42"></path><path d="M439.3 213.8L444.3 232.9L513.1 245.8Z" fill="#297ea6" stroke="#297ea6"></path><path d="M513.1 245.8L444.3 232.9L459.7 265.9Z" fill="#277297" stroke="#277297"></path><path d="M515.7 344.1L552.1 320.9L498.1 297.1Z" fill="#15384f" stroke="#15384f"></path><path d="M406.3 370.2L515.7 370.4L515.7 344.1Z" fill="#205a7a" stroke="#205a7a"></path><path d="M515.7 344.1L543.4 373.2L552.1 320.9Z" fill="#277297" stroke="#277297"></path><path d="M515.4 178.5L439.3 213.8L513.1 245.8Z" fill="#277297" stroke="#277297"></path><path d="M552.1 320.9L579.8 271.9L497.7 279.8Z" fill="#297ea6" stroke="#297ea6"></path><path d="M444.3 232.9L403.3 229.6L459.7 265.9Z" fill="#15384f" stroke="#15384f"></path><path d="M368.9 288.9L406.3 370.2L476.3 300.1Z" fill="#00101c" stroke="#00101c"></path><path d="M476.3 300.1L406.3 370.2L515.7 344.1Z" fill="#297ea6" stroke="#297ea6"></path><path d="M439.3 213.8L403.3 229.6L444.3 232.9Z" fill="#297ea6" stroke="#297ea6"></path><path d="M579.8 271.9L571.1 233.6L534.4 239.9Z" fill="#297ea6" stroke="#297ea6"></path><path d="M534.4 239.9L515.4 178.5L513.1 245.8Z" fill="#205a7a" stroke="#205a7a"></path><path d="M515.7 370.4L543.4 373.2L515.7 344.1Z" fill="#246688" stroke="#246688"></path><path d="M600.4 340.1L601.8 264.8L579.8 271.9Z" fill="#00101c" stroke="#00101c"></path><path d="M368.9 288.9L476.3 300.1L459.7 265.9Z" fill="#081a28" stroke="#081a28"></path><path d="M565.1 406.4L572.1 379.2L543.4 373.2Z" fill="#277297" stroke="#277297"></path><path d="M558.4 193.8L515.4 178.5L534.4 239.9Z" fill="#246688" stroke="#246688"></path><path d="M439.3 213.8L430.7 184.5L403.3 229.6Z" fill="#205a7a" stroke="#205a7a"></path><path d="M403.3 229.6L368.9 288.9L459.7 265.9Z" fill="#297ea6" stroke="#297ea6"></path><path d="M515.4 178.5L430.7 184.5L439.3 213.8Z" fill="#081a28" stroke="#081a28"></path><path d="M600.4 340.1L579.8 271.9L552.1 320.9Z" fill="#0c2435" stroke="#0c2435"></path><path d="M579.8 271.9L601.8 264.8L571.1 233.6Z" fill="#00101c" stroke="#00101c"></path><path d="M621.2 211.8L558.4 193.8L571.1 233.6Z" fill="#0c2435" stroke="#0c2435"></path><path d="M571.1 233.6L558.4 193.8L534.4 239.9Z" fill="#00101c" stroke="#00101c"></path><path d="M565.1 406.4L543.4 373.2L515.7 370.4Z" fill="#081a28" stroke="#081a28"></path><path d="M543.4 373.2L572.1 379.2L552.1 320.9Z" fill="#1d4e6b" stroke="#1d4e6b"></path><path d="M598.8 353.1L600.4 340.1L552.1 320.9Z" fill="#0c2435" stroke="#0c2435"></path><path d="M572.1 379.2L598.8 353.1L552.1 320.9Z" fill="#112e42" stroke="#112e42"></path><path d="M406.3 370.2L429.7 406.2L515.7 370.4Z" fill="#205a7a" stroke="#205a7a"></path><path d="M529.4 154.6L513.1 157.5L515.4 178.5Z" fill="#277297" stroke="#277297"></path><path d="M515.4 178.5L513.1 157.5L430.7 184.5Z" fill="#1d4e6b" stroke="#1d4e6b"></path><path d="M360.6 378.4L423.3 411.4L406.3 370.2Z" fill="#15384f" stroke="#15384f"></path><path d="M406.3 370.2L423.3 411.4L429.7 406.2Z" fill="#081a28" stroke="#081a28"></path><path d="M530.1 457.5L565.1 406.4L515.7 370.4Z" fill="#0c2435" stroke="#0c2435"></path><path d="M368.9 288.9L361.6 354.1L406.3 370.2Z" fill="#19435d" stroke="#19435d"></path><path d="M558.4 193.8L529.4 154.6L515.4 178.5Z" fill="#1d4e6b" stroke="#1d4e6b"></path><path d="M530.1 457.5L515.7 370.4L429.7 406.2Z" fill="#081a28" stroke="#081a28"></path><path d="M572.1 379.2L615.8 367.2L598.8 353.1Z" fill="#246688" stroke="#246688"></path><path d="M565.1 406.4L615.8 367.2L572.1 379.2Z" fill="#00101c" stroke="#00101c"></path><path d="M598.8 353.1L615.8 367.2L600.4 340.1Z" fill="#00101c" stroke="#00101c"></path><path d="M600.4 340.1L641.2 295.1L601.8 264.8Z" fill="#15384f" stroke="#15384f"></path><path d="M361.6 354.1L360.6 378.4L406.3 370.2Z" fill="#15384f" stroke="#15384f"></path><path d="M329.2 278.9L333.9 317.1L368.9 288.9Z" fill="#0c2435" stroke="#0c2435"></path><path d="M368.9 288.9L334.2 321.2L361.6 354.1Z" fill="#00101c" stroke="#00101c"></path><path d="M361.6 354.1L352.9 373.2L360.6 378.4Z" fill="#15384f" stroke="#15384f"></path><path d="M329.2 278.9L368.9 288.9L403.3 229.6Z" fill="#15384f" stroke="#15384f"></path><path d="M333.9 317.1L334.2 321.2L368.9 288.9Z" fill="#19435d" stroke="#19435d"></path><path d="M529.4 154.6L517.7 136.6L513.1 157.5Z" fill="#19435d" stroke="#19435d"></path><path d="M422.7 113.3L404.9 131.6L430.7 184.5Z" fill="#1d4e6b" stroke="#1d4e6b"></path><path d="M551.1 127.3L517.7 136.6L529.4 154.6Z" fill="#1d4e6b" stroke="#1d4e6b"></path><path d="M648.8 371.4L641.2 295.1L600.4 340.1Z" fill="#1d4e6b" stroke="#1d4e6b"></path><path d="M601.8 264.8L621.2 211.8L571.1 233.6Z" fill="#0c2435" stroke="#0c2435"></path><path d="M558.4 193.8L551.1 127.3L529.4 154.6Z" fill="#205a7a" stroke="#205a7a"></path><path d="M673.2 224.6L621.2 211.8L601.8 264.8Z" fill="#19435d" stroke="#19435d"></path><path d="M313.6 229.9L329.2 278.9L403.3 229.6Z" fill="#205a7a" stroke="#205a7a"></path><path d="M333.9 317.1L274.2 280.1L334.2 321.2Z" fill="#00101c" stroke="#00101c"></path><path d="M334.2 321.2L352.9 373.2L361.6 354.1Z" fill="#205a7a" stroke="#205a7a"></path><path d="M340.9 182.8L403.3 229.6L430.7 184.5Z" fill="#15384f" stroke="#15384f"></path><path d="M340.9 182.8L338.6 199.8L403.3 229.6Z" fill="#00101c" stroke="#00101c"></path><path d="M366.9 461.5L434.7 454.7L423.3 411.4Z" fill="#19435d" stroke="#19435d"></path><path d="M423.3 411.4L434.7 454.7L429.7 406.2Z" fill="#246688" stroke="#246688"></path><path d="M366.9 461.5L423.3 411.4L360.6 378.4Z" fill="#0c2435" stroke="#0c2435"></path><path d="M586.8 125.3L551.1 127.3L558.4 193.8Z" fill="#19435d" stroke="#19435d"></path><path d="M434.7 454.7L530.1 457.5L429.7 406.2Z" fill="#00101c" stroke="#00101c"></path><path d="M565.1 406.4L586.4 435.4L615.8 367.2Z" fill="#00101c" stroke="#00101c"></path><path d="M422.7 113.3L513.1 157.5L517.7 136.6Z" fill="#19435d" stroke="#19435d"></path><path d="M422.7 113.3L430.7 184.5L513.1 157.5Z" fill="#19435d" stroke="#19435d"></path><path d="M530.1 457.5L586.4 435.4L565.1 406.4Z" fill="#112e42" stroke="#112e42"></path><path d="M404.9 131.6L340.9 182.8L430.7 184.5Z" fill="#297ea6" stroke="#297ea6"></path><path d="M304.6 205.6L313.6 229.9L338.6 199.8Z" fill="#081a28" stroke="#081a28"></path><path d="M338.6 199.8L313.6 229.9L403.3 229.6Z" fill="#277297" stroke="#277297"></path><path d="M329.2 278.9L274.2 280.1L333.9 317.1Z" fill="#15384f" stroke="#15384f"></path><path d="M626.2 432.5L648.8 371.4L615.8 367.2Z" fill="#1d4e6b" stroke="#1d4e6b"></path><path d="M615.8 367.2L648.8 371.4L600.4 340.1Z" fill="#297ea6" stroke="#297ea6"></path><path d="M530.1 457.5L587.4 441.5L586.4 435.4Z" fill="#081a28" stroke="#081a28"></path><path d="M586.4 435.4L626.2 432.5L615.8 367.2Z" fill="#277297" stroke="#277297"></path><path d="M409.3 85.5L422.7 113.3L478.3 26.2Z" fill="#00101c" stroke="#00101c"></path><path d="M404.9 131.6L380.3 126.3L340.9 182.8Z" fill="#112e42" stroke="#112e42"></path><path d="M283.6 408.2L333.9 402.4L352.9 373.2Z" fill="#00101c" stroke="#00101c"></path><path d="M352.9 373.2L333.9 402.4L360.6 378.4Z" fill="#277297" stroke="#277297"></path><path d="M283.6 408.2L352.9 373.2L334.2 321.2Z" fill="#00101c" stroke="#00101c"></path><path d="M621.2 211.8L586.8 125.3L558.4 193.8Z" fill="#246688" stroke="#246688"></path><path d="M498.7 32.2L422.7 113.3L517.7 136.6Z" fill="#205a7a" stroke="#205a7a"></path><path d="M409.3 85.5L380.3 126.3L404.9 131.6Z" fill="#19435d" stroke="#19435d"></path><path d="M694.5 263.9L673.2 224.6L641.2 295.1Z" fill="#081a28" stroke="#081a28"></path><path d="M641.2 295.1L673.2 224.6L601.8 264.8Z" fill="#1d4e6b" stroke="#1d4e6b"></path><path d="M621.2 211.8L601.4 120.3L586.8 125.3Z" fill="#277297" stroke="#277297"></path><path d="M340.9 182.8L304.6 205.6L338.6 199.8Z" fill="#297ea6" stroke="#297ea6"></path><path d="M313.6 229.9L276.8 260.9L329.2 278.9Z" fill="#277297" stroke="#277297"></path><path d="M293.2 177.8L304.6 205.6L340.9 182.8Z" fill="#19435d" stroke="#19435d"></path><path d="M585.4 482.7L626.2 432.5L587.4 441.5Z" fill="#297ea6" stroke="#297ea6"></path><path d="M587.4 441.5L626.2 432.5L586.4 435.4Z" fill="#1d4e6b" stroke="#1d4e6b"></path><path d="M666.8 180.6L601.4 120.3L621.2 211.8Z" fill="#297ea6" stroke="#297ea6"></path><path d="M586.8 125.3L586.8 110.5L551.1 127.3Z" fill="#1d4e6b" stroke="#1d4e6b"></path><path d="M601.4 120.3L586.8 110.5L586.8 125.3Z" fill="#277297" stroke="#277297"></path><path d="M333.9 402.4L366.9 461.5L360.6 378.4Z" fill="#1d4e6b" stroke="#1d4e6b"></path><path d="M533.1 502.7L585.4 482.7L530.1 457.5Z" fill="#15384f" stroke="#15384f"></path><path d="M683.5 373.1L641.2 295.1L648.8 371.4Z" fill="#081a28" stroke="#081a28"></path><path d="M713.9 282.9L694.5 263.9L641.2 295.1Z" fill="#00101c" stroke="#00101c"></path><path d="M409.3 85.5L370.9 112.5L380.3 126.3Z" fill="#205a7a" stroke="#205a7a"></path><path d="M380.3 126.3L312.2 141.6L340.9 182.8Z" fill="#297ea6" stroke="#297ea6"></path><path d="M409.3 85.5L404.9 131.6L422.7 113.3Z" fill="#19435d" stroke="#19435d"></path><path d="M684.2 177.5L666.8 180.6L673.2 224.6Z" fill="#112e42" stroke="#112e42"></path><path d="M673.2 224.6L666.8 180.6L621.2 211.8Z" fill="#00101c" stroke="#00101c"></path><path d="M304.6 205.6L276.8 260.9L313.6 229.9Z" fill="#15384f" stroke="#15384f"></path><path d="M276.8 260.9L274.2 280.1L329.2 278.9Z" fill="#1d4e6b" stroke="#1d4e6b"></path><path d="M674.2 412.2L683.5 373.1L648.8 371.4Z" fill="#297ea6" stroke="#297ea6"></path><path d="M569.1 84.2L517.7 136.6L551.1 127.3Z" fill="#19435d" stroke="#19435d"></path><path d="M533.1 502.7L530.1 457.5L467.7 508.5Z" fill="#15384f" stroke="#15384f"></path><path d="M530.1 457.5L585.4 482.7L587.4 441.5Z" fill="#205a7a" stroke="#205a7a"></path><path d="M626.2 432.5L674.2 412.2L648.8 371.4Z" fill="#277297" stroke="#277297"></path><path d="M467.7 508.5L530.1 457.5L434.7 454.7Z" fill="#00101c" stroke="#00101c"></path><path d="M713.9 282.9L702.2 248.9L694.5 263.9Z" fill="#297ea6" stroke="#297ea6"></path><path d="M694.5 263.9L702.2 248.9L673.2 224.6Z" fill="#19435d" stroke="#19435d"></path><path d="M415.3 521.8L467.7 508.5L434.7 454.7Z" fill="#112e42" stroke="#112e42"></path><path d="M628.8 41.2L569.1 84.2L586.8 110.5Z" fill="#205a7a" stroke="#205a7a"></path><path d="M586.8 110.5L569.1 84.2L551.1 127.3Z" fill="#00101c" stroke="#00101c"></path><path d="M571.4 18.2L569.1 84.2L628.8 41.2Z" fill="#0c2435" stroke="#0c2435"></path><path d="M312.2 141.6L293.2 177.8L340.9 182.8Z" fill="#00101c" stroke="#00101c"></path><path d="M304.6 205.6L237.5 236.9L276.8 260.9Z" fill="#277297" stroke="#277297"></path><path d="M533.1 502.7L583.8 490.5L585.4 482.7Z" fill="#19435d" stroke="#19435d"></path><path d="M585.4 482.7L661.2 491.7L626.2 432.5Z" fill="#15384f" stroke="#15384f"></path><path d="M682.2 411.4L674.2 412.2L708.9 439.5Z" fill="#19435d" stroke="#19435d"></path><path d="M710.9 243.8L684.2 177.5L673.2 224.6Z" fill="#246688" stroke="#246688"></path><path d="M666.8 180.6L672.2 135.3L601.4 120.3Z" fill="#205a7a" stroke="#205a7a"></path><path d="M370.9 112.5L312.2 141.6L380.3 126.3Z" fill="#081a28" stroke="#081a28"></path><path d="M336.6 98.5L312.2 141.6L370.9 112.5Z" fill="#1d4e6b" stroke="#1d4e6b"></path><path d="M274.8 156.6L284.8 181.8L293.2 177.8Z" fill="#297ea6" stroke="#297ea6"></path><path d="M293.2 177.8L284.8 181.8L304.6 205.6Z" fill="#246688" stroke="#246688"></path><path d="M276.8 260.9L237.5 236.9L274.2 280.1Z" fill="#1d4e6b" stroke="#1d4e6b"></path><path d="M704.5 361.2L641.2 295.1L683.5 373.1Z" fill="#246688" stroke="#246688"></path><path d="M704.5 361.2L713.9 282.9L641.2 295.1Z" fill="#246688" stroke="#246688"></path><path d="M702.2 248.9L710.9 243.8L673.2 224.6Z" fill="#246688" stroke="#246688"></path><path d="M713.9 282.9L710.9 243.8L702.2 248.9Z" fill="#15384f" stroke="#15384f"></path><path d="M702.5 372.4L704.5 361.2L683.5 373.1Z" fill="#15384f" stroke="#15384f"></path><path d="M661.2 491.7L674.2 412.2L626.2 432.5Z" fill="#00101c" stroke="#00101c"></path><path d="M674.2 412.2L682.2 411.4L683.5 373.1Z" fill="#081a28" stroke="#081a28"></path><path d="M682.2 411.4L702.5 372.4L683.5 373.1Z" fill="#297ea6" stroke="#297ea6"></path><path d="M672.2 135.3L676.5 154.6L684.5 149.5Z" fill="#081a28" stroke="#081a28"></path><path d="M684.2 177.5L676.5 154.6L666.8 180.6Z" fill="#19435d" stroke="#19435d"></path><path d="M365.6 500.5L374.3 494.5L366.9 461.5Z" fill="#112e42" stroke="#112e42"></path><path d="M366.9 461.5L374.3 494.5L434.7 454.7Z" fill="#19435d" stroke="#19435d"></path><path d="M324.2 503.8L366.9 461.5L333.9 402.4Z" fill="#277297" stroke="#277297"></path><path d="M229.8 344.2L283.6 408.2L334.2 321.2Z" fill="#246688" stroke="#246688"></path><path d="M374.3 494.5L404.9 515.7L434.7 454.7Z" fill="#15384f" stroke="#15384f"></path><path d="M467.7 508.5L514.7 538.8L533.1 502.7Z" fill="#0c2435" stroke="#0c2435"></path><path d="M684.5 149.5L676.5 154.6L684.2 177.5Z" fill="#297ea6" stroke="#297ea6"></path><path d="M676.5 154.6L672.2 135.3L666.8 180.6Z" fill="#0c2435" stroke="#0c2435"></path><path d="M372.9 42.3L336.6 98.5L370.9 112.5Z" fill="#297ea6" stroke="#297ea6"></path><path d="M276.2 151.5L274.8 156.6L293.2 177.8Z" fill="#19435d" stroke="#19435d"></path><path d="M764.9 156.6L684.5 149.5L684.2 177.5Z" fill="#112e42" stroke="#112e42"></path><path d="M404.9 515.7L415.3 521.8L434.7 454.7Z" fill="#15384f" stroke="#15384f"></path><path d="M324.2 503.8L365.6 500.5L366.9 461.5Z" fill="#081a28" stroke="#081a28"></path><path d="M374.3 494.5L365.6 500.5L404.9 515.7Z" fill="#277297" stroke="#277297"></path><path d="M404.9 515.7L409.3 533.7L415.3 521.8Z" fill="#0c2435" stroke="#0c2435"></path><path d="M276.2 151.5L293.2 177.8L312.2 141.6Z" fill="#205a7a" stroke="#205a7a"></path><path d="M284.8 181.8L237.5 236.9L304.6 205.6Z" fill="#00101c" stroke="#00101c"></path><path d="M266.2 141.3L276.2 151.5L312.2 141.6Z" fill="#205a7a" stroke="#205a7a"></path><path d="M471.1 553.8L514.7 538.8L467.7 508.5Z" fill="#277297" stroke="#277297"></path><path d="M533.1 502.7L602.8 526.7L583.8 490.5Z" fill="#0c2435" stroke="#0c2435"></path><path d="M194.5 162.6L237.5 236.9L284.8 181.8Z" fill="#15384f" stroke="#15384f"></path><path d="M274.2 280.1L229.8 344.2L334.2 321.2Z" fill="#112e42" stroke="#112e42"></path><path d="M179.5 212.8L237.5 236.9L194.5 162.6Z" fill="#15384f" stroke="#15384f"></path><path d="M365.6 500.5L409.3 533.7L404.9 515.7Z" fill="#00101c" stroke="#00101c"></path><path d="M415.3 521.8L471.1 553.8L467.7 508.5Z" fill="#00101c" stroke="#00101c"></path><path d="M571.4 18.2L498.7 32.2L569.1 84.2Z" fill="#1d4e6b" stroke="#1d4e6b"></path><path d="M569.1 84.2L498.7 32.2L517.7 136.6Z" fill="#297ea6" stroke="#297ea6"></path><path d="M372.9 42.3L309.6 89.3L336.6 98.5Z" fill="#277297" stroke="#277297"></path><path d="M198.5 317.2L229.8 344.2L274.2 280.1Z" fill="#1d4e6b" stroke="#1d4e6b"></path><path d="M498.7 32.2L478.3 26.2L422.7 113.3Z" fill="#277297" stroke="#277297"></path><path d="M309.6 89.3L266.2 141.3L312.2 141.6Z" fill="#112e42" stroke="#112e42"></path><path d="M276.2 151.5L266.2 141.3L274.8 156.6Z" fill="#246688" stroke="#246688"></path><path d="M514.7 538.8L602.8 526.7L533.1 502.7Z" fill="#205a7a" stroke="#205a7a"></path><path d="M583.8 490.5L602.8 526.7L585.4 482.7Z" fill="#081a28" stroke="#081a28"></path><path d="M409.3 533.7L471.1 553.8L415.3 521.8Z" fill="#246688" stroke="#246688"></path><path d="M514.7 538.8L601.4 564.8L602.8 526.7Z" fill="#1d4e6b" stroke="#1d4e6b"></path><path d="M771.9 318.2L751.5 274.8L713.9 282.9Z" fill="#00101c" stroke="#00101c"></path><path d="M713.9 282.9L751.5 274.8L710.9 243.8Z" fill="#205a7a" stroke="#205a7a"></path><path d="M710.9 243.8L765.3 206.6L684.2 177.5Z" fill="#1d4e6b" stroke="#1d4e6b"></path><path d="M770.3 278.1L751.5 274.8L771.9 318.2Z" fill="#277297" stroke="#277297"></path><path d="M372.9 42.3L370.9 112.5L409.3 85.5Z" fill="#081a28" stroke="#081a28"></path><path d="M336.6 98.5L309.6 89.3L312.2 141.6Z" fill="#19435d" stroke="#19435d"></path><path d="M229.8 344.2L241.2 395.4L283.6 408.2Z" fill="#081a28" stroke="#081a28"></path><path d="M283.6 408.2L324.2 503.8L333.9 402.4Z" fill="#15384f" stroke="#15384f"></path><path d="M602.8 526.7L661.2 491.7L585.4 482.7Z" fill="#297ea6" stroke="#297ea6"></path><path d="M682.2 411.4L708.9 439.5L702.5 372.4Z" fill="#205a7a" stroke="#205a7a"></path><path d="M771.9 318.2L713.9 282.9L704.5 361.2Z" fill="#205a7a" stroke="#205a7a"></path><path d="M245.8 497.7L324.2 503.8L283.6 408.2Z" fill="#0c2435" stroke="#0c2435"></path><path d="M358.6 600L396.3 600L409.3 533.7Z" fill="#297ea6" stroke="#297ea6"></path><path d="M661.2 491.7L708.9 439.5L674.2 412.2Z" fill="#00101c" stroke="#00101c"></path><path d="M401.9 14.2L372.9 42.3L409.3 85.5Z" fill="#112e42" stroke="#112e42"></path><path d="M187.8 363.1L222.5 362.4L229.8 344.2Z" fill="#205a7a" stroke="#205a7a"></path><path d="M229.8 344.2L222.5 362.4L241.2 395.4Z" fill="#00101c" stroke="#00101c"></path><path d="M602.8 526.7L665.8 505.8L661.2 491.7Z" fill="#00101c" stroke="#00101c"></path><path d="M722.5 481.5L733.9 465.4L708.9 439.5Z" fill="#00101c" stroke="#00101c"></path><path d="M628.8 41.2L601.4 120.3L672.2 135.3Z" fill="#205a7a" stroke="#205a7a"></path><path d="M628.8 41.2L586.8 110.5L601.4 120.3Z" fill="#081a28" stroke="#081a28"></path><path d="M498.7 32.2L492.7 0L478.3 26.2Z" fill="#1d4e6b" stroke="#1d4e6b"></path><path d="M771.9 318.2L704.5 361.2L782.9 333.1Z" fill="#297ea6" stroke="#297ea6"></path><path d="M779.3 233.9L765.3 206.6L710.9 243.8Z" fill="#112e42" stroke="#112e42"></path><path d="M713.5 79.3L628.8 41.2L672.2 135.3Z" fill="#246688" stroke="#246688"></path><path d="M713.5 79.3L672.2 135.3L684.5 149.5Z" fill="#1d4e6b" stroke="#1d4e6b"></path><path d="M418.9 0L401.9 14.2L478.3 26.2Z" fill="#1d4e6b" stroke="#1d4e6b"></path><path d="M478.3 26.2L401.9 14.2L409.3 85.5Z" fill="#277297" stroke="#277297"></path><path d="M281.6 29.2L281.2 68.2L309.6 89.3Z" fill="#00101c" stroke="#00101c"></path><path d="M782.9 333.1L704.5 361.2L702.5 372.4Z" fill="#081a28" stroke="#081a28"></path><path d="M237.5 236.9L198.5 317.2L274.2 280.1Z" fill="#0c2435" stroke="#0c2435"></path><path d="M170.1 263.8L198.5 317.2L237.5 236.9Z" fill="#15384f" stroke="#15384f"></path><path d="M541.1 0L492.7 0L498.7 32.2Z" fill="#205a7a" stroke="#205a7a"></path><path d="M779.3 233.9L710.9 243.8L751.5 274.8Z" fill="#205a7a" stroke="#205a7a"></path><path d="M571.4 18.2L541.1 0L498.7 32.2Z" fill="#15384f" stroke="#15384f"></path><path d="M585.8 0L541.1 0L571.4 18.2Z" fill="#297ea6" stroke="#297ea6"></path><path d="M492.7 0L418.9 0L478.3 26.2Z" fill="#1d4e6b" stroke="#1d4e6b"></path><path d="M330.2 0L309.6 89.3L372.9 42.3Z" fill="#112e42" stroke="#112e42"></path><path d="M770.3 278.1L779.3 233.9L751.5 274.8Z" fill="#1d4e6b" stroke="#1d4e6b"></path><path d="M837.6 250.8L779.3 233.9L770.3 278.1Z" fill="#19435d" stroke="#19435d"></path><path d="M563.8 600L601.4 564.8L514.7 538.8Z" fill="#112e42" stroke="#112e42"></path><path d="M602.8 526.7L667.5 552.8L665.8 505.8Z" fill="#1d4e6b" stroke="#1d4e6b"></path><path d="M813.6 425.5L702.5 372.4L708.9 439.5Z" fill="#0c2435" stroke="#0c2435"></path><path d="M813.6 425.5L782.9 333.1L702.5 372.4Z" fill="#15384f" stroke="#15384f"></path><path d="M771.9 318.2L813.6 306.9L770.3 278.1Z" fill="#297ea6" stroke="#297ea6"></path><path d="M388.3 0L372.9 42.3L401.9 14.2Z" fill="#15384f" stroke="#15384f"></path><path d="M309.6 89.3L281.2 68.2L266.2 141.3Z" fill="#112e42" stroke="#112e42"></path><path d="M194.5 162.6L284.8 181.8L274.8 156.6Z" fill="#205a7a" stroke="#205a7a"></path><path d="M722.5 481.5L661.2 491.7L665.8 505.8Z" fill="#246688" stroke="#246688"></path><path d="M722.5 481.5L708.9 439.5L661.2 491.7Z" fill="#205a7a" stroke="#205a7a"></path><path d="M418.9 0L388.3 0L401.9 14.2Z" fill="#112e42" stroke="#112e42"></path><path d="M728.9 500.7L722.5 481.5L665.8 505.8Z" fill="#205a7a" stroke="#205a7a"></path><path d="M588.4 0L585.8 0L571.4 18.2Z" fill="#19435d" stroke="#19435d"></path><path d="M611.2 8.2L588.4 0L571.4 18.2Z" fill="#112e42" stroke="#112e42"></path><path d="M198.5 317.2L187.8 363.1L229.8 344.2Z" fill="#081a28" stroke="#081a28"></path><path d="M222.5 362.4L185.5 416.5L241.2 395.4Z" fill="#1d4e6b" stroke="#1d4e6b"></path><path d="M241.2 395.4L231.2 463.5L283.6 408.2Z" fill="#081a28" stroke="#081a28"></path><path d="M670.5 0L611.2 8.2L628.8 41.2Z" fill="#00101c" stroke="#00101c"></path><path d="M628.8 41.2L611.2 8.2L571.4 18.2Z" fill="#19435d" stroke="#19435d"></path><path d="M772.3 173.5L764.9 156.6L765.3 206.6Z" fill="#205a7a" stroke="#205a7a"></path><path d="M765.3 206.6L764.9 156.6L684.2 177.5Z" fill="#112e42" stroke="#112e42"></path><path d="M825.3 214.8L772.3 173.5L765.3 206.6Z" fill="#246688" stroke="#246688"></path><path d="M208.8 457.4L231.2 463.5L241.2 395.4Z" fill="#246688" stroke="#246688"></path><path d="M764.9 156.6L713.5 79.3L684.5 149.5Z" fill="#112e42" stroke="#112e42"></path><path d="M388.3 0L372.6 0L372.9 42.3Z" fill="#0c2435" stroke="#0c2435"></path><path d="M446.7 600L496.1 600L471.1 553.8Z" fill="#297ea6" stroke="#297ea6"></path><path d="M471.1 553.8L496.1 600L514.7 538.8Z" fill="#00101c" stroke="#00101c"></path><path d="M446.7 600L471.1 553.8L409.3 533.7Z" fill="#081a28" stroke="#081a28"></path><path d="M446.7 600L409.3 533.7L396.3 600Z" fill="#00101c" stroke="#00101c"></path><path d="M409.3 533.7L365.6 500.5L339.9 587.8Z" fill="#081a28" stroke="#081a28"></path><path d="M194.5 162.6L274.8 156.6L266.2 141.3Z" fill="#081a28" stroke="#081a28"></path><path d="M148.5 310.1L178.1 367.2L187.8 363.1Z" fill="#246688" stroke="#246688"></path><path d="M224.8 92.2L219.8 118.3L266.2 141.3Z" fill="#246688" stroke="#246688"></path><path d="M179.5 212.8L170.1 263.8L237.5 236.9Z" fill="#1d4e6b" stroke="#1d4e6b"></path><path d="M219.8 118.3L194.5 162.6L266.2 141.3Z" fill="#112e42" stroke="#112e42"></path><path d="M148.5 310.1L187.8 363.1L198.5 317.2Z" fill="#297ea6" stroke="#297ea6"></path><path d="M187.8 363.1L185.5 416.5L222.5 362.4Z" fill="#15384f" stroke="#15384f"></path><path d="M243.2 500.7L245.8 497.7L231.2 463.5Z" fill="#15384f" stroke="#15384f"></path><path d="M231.2 463.5L245.8 497.7L283.6 408.2Z" fill="#0c2435" stroke="#0c2435"></path><path d="M666.2 568.8L667.5 552.8L601.4 564.8Z" fill="#112e42" stroke="#112e42"></path><path d="M601.4 564.8L667.5 552.8L602.8 526.7Z" fill="#246688" stroke="#246688"></path><path d="M496.1 600L563.8 600L514.7 538.8Z" fill="#297ea6" stroke="#297ea6"></path><path d="M748.5 37.2L704.9 53.3L713.5 79.3Z" fill="#1d4e6b" stroke="#1d4e6b"></path><path d="M713.5 79.3L704.9 53.3L628.8 41.2Z" fill="#081a28" stroke="#081a28"></path><path d="M205.8 490.5L243.2 500.7L231.2 463.5Z" fill="#205a7a" stroke="#205a7a"></path><path d="M245.8 497.7L279.6 541.7L324.2 503.8Z" fill="#081a28" stroke="#081a28"></path><path d="M687.5 541.7L728.9 500.7L665.8 505.8Z" fill="#277297" stroke="#277297"></path><path d="M722.5 481.5L728.9 500.7L733.9 465.4Z" fill="#081a28" stroke="#081a28"></path><path d="M821.3 411.2L810.6 321.2L782.9 333.1Z" fill="#15384f" stroke="#15384f"></path><path d="M772.3 173.5L780.9 156.5L764.9 156.6Z" fill="#00101c" stroke="#00101c"></path><path d="M764.9 156.6L759.9 37.2L713.5 79.3Z" fill="#0c2435" stroke="#0c2435"></path><path d="M825.3 214.8L780.9 156.5L772.3 173.5Z" fill="#277297" stroke="#277297"></path><path d="M825.3 214.8L765.3 206.6L779.3 233.9Z" fill="#1d4e6b" stroke="#1d4e6b"></path><path d="M667.5 552.8L687.5 541.7L665.8 505.8Z" fill="#205a7a" stroke="#205a7a"></path><path d="M339.9 587.8L365.6 500.5L324.2 503.8Z" fill="#246688" stroke="#246688"></path><path d="M185.5 416.5L208.8 457.4L241.2 395.4Z" fill="#1d4e6b" stroke="#1d4e6b"></path><path d="M245.8 533.8L279.6 541.7L245.8 497.7Z" fill="#081a28" stroke="#081a28"></path><path d="M178.1 367.2L185.5 416.5L187.8 363.1Z" fill="#19435d" stroke="#19435d"></path><path d="M760.3 467.5L708.9 439.5L733.9 465.4Z" fill="#297ea6" stroke="#297ea6"></path><path d="M782.9 333.1L810.6 321.2L771.9 318.2Z" fill="#081a28" stroke="#081a28"></path><path d="M281.2 68.2L224.8 92.2L266.2 141.3Z" fill="#1d4e6b" stroke="#1d4e6b"></path><path d="M219.8 118.3L186.8 116.5L194.5 162.6Z" fill="#277297" stroke="#277297"></path><path d="M281.6 29.2L224.8 92.2L281.2 68.2Z" fill="#00101c" stroke="#00101c"></path><path d="M128.7 243.9L159.1 268.9L170.1 263.8Z" fill="#0c2435" stroke="#0c2435"></path><path d="M170.1 263.8L159.1 268.9L198.5 317.2Z" fill="#277297" stroke="#277297"></path><path d="M178.1 367.2L179.1 421.5L185.5 416.5Z" fill="#081a28" stroke="#081a28"></path><path d="M139.7 290.1L159.1 268.9L128.7 243.9Z" fill="#19435d" stroke="#19435d"></path><path d="M728.9 500.7L760.3 467.5L733.9 465.4Z" fill="#0c2435" stroke="#0c2435"></path><path d="M372.6 0L330.2 0L372.9 42.3Z" fill="#00101c" stroke="#00101c"></path><path d="M810.6 321.2L813.6 306.9L771.9 318.2Z" fill="#1d4e6b" stroke="#1d4e6b"></path><path d="M330.2 0L281.6 29.2L309.6 89.3Z" fill="#297ea6" stroke="#297ea6"></path><path d="M235.5 580.8L288.6 554.8L279.6 541.7Z" fill="#15384f" stroke="#15384f"></path><path d="M279.6 541.7L288.6 554.8L324.2 503.8Z" fill="#297ea6" stroke="#297ea6"></path><path d="M563.8 600L602.4 600L601.4 564.8Z" fill="#19435d" stroke="#19435d"></path><path d="M667.5 552.8L666.2 568.8L687.5 541.7Z" fill="#297ea6" stroke="#297ea6"></path><path d="M288.6 554.8L339.9 587.8L324.2 503.8Z" fill="#112e42" stroke="#112e42"></path><path d="M620.2 600L666.2 568.8L601.4 564.8Z" fill="#277297" stroke="#277297"></path><path d="M687.5 541.7L766.9 562.8L728.9 500.7Z" fill="#205a7a" stroke="#205a7a"></path><path d="M823.6 429.4L813.6 425.5L760.3 467.5Z" fill="#297ea6" stroke="#297ea6"></path><path d="M205.8 490.5L245.8 533.8L243.2 500.7Z" fill="#205a7a" stroke="#205a7a"></path><path d="M185.5 416.5L179.1 421.5L208.8 457.4Z" fill="#246688" stroke="#246688"></path><path d="M132.1 354.1L179.1 421.5L178.1 367.2Z" fill="#112e42" stroke="#112e42"></path><path d="M339.9 587.8L358.6 600L409.3 533.7Z" fill="#1d4e6b" stroke="#1d4e6b"></path><path d="M357.9 600L358.6 600L339.9 587.8Z" fill="#0c2435" stroke="#0c2435"></path><path d="M282.2 600L357.9 600L339.9 587.8Z" fill="#297ea6" stroke="#297ea6"></path><path d="M159.1 268.9L148.5 310.1L198.5 317.2Z" fill="#277297" stroke="#277297"></path><path d="M602.4 600L620.2 600L601.4 564.8Z" fill="#1d4e6b" stroke="#1d4e6b"></path><path d="M704.9 53.3L670.5 0L628.8 41.2Z" fill="#277297" stroke="#277297"></path><path d="M611.2 8.2L670.5 0L588.4 0Z" fill="#277297" stroke="#277297"></path><path d="M698.2 0L670.5 0L704.9 53.3Z" fill="#15384f" stroke="#15384f"></path><path d="M243.2 500.7L245.8 533.8L245.8 497.7Z" fill="#112e42" stroke="#112e42"></path><path d="M288.6 554.8L282.2 600L339.9 587.8Z" fill="#205a7a" stroke="#205a7a"></path><path d="M205.8 490.5L231.2 463.5L208.8 457.4Z" fill="#246688" stroke="#246688"></path><path d="M224.8 92.2L186.8 116.5L219.8 118.3Z" fill="#112e42" stroke="#112e42"></path><path d="M194.5 162.6L162.1 144.3L179.5 212.8Z" fill="#246688" stroke="#246688"></path><path d="M159.1 268.9L139.7 290.1L148.5 310.1Z" fill="#15384f" stroke="#15384f"></path><path d="M162.5 85.5L186.8 116.5L224.8 92.2Z" fill="#205a7a" stroke="#205a7a"></path><path d="M145.1 452.4L205.8 490.5L208.8 457.4Z" fill="#1d4e6b" stroke="#1d4e6b"></path><path d="M128.7 243.9L170.1 263.8L179.5 212.8Z" fill="#246688" stroke="#246688"></path><path d="M148.5 310.1L132.1 354.1L178.1 367.2Z" fill="#246688" stroke="#246688"></path><path d="M837.6 250.8L825.3 214.8L779.3 233.9Z" fill="#00101c" stroke="#00101c"></path><path d="M748.5 37.2L698.2 0L704.9 53.3Z" fill="#0c2435" stroke="#0c2435"></path><path d="M330.2 0L284.8 0L281.6 29.2Z" fill="#246688" stroke="#246688"></path><path d="M161.5 43.2L162.5 85.5L224.8 92.2Z" fill="#112e42" stroke="#112e42"></path><path d="M860.6 311.1L837.6 250.8L813.6 306.9Z" fill="#0c2435" stroke="#0c2435"></path><path d="M813.6 306.9L837.6 250.8L770.3 278.1Z" fill="#15384f" stroke="#15384f"></path><path d="M860.6 311.1L813.6 306.9L810.6 321.2Z" fill="#205a7a" stroke="#205a7a"></path><path d="M157.5 132.3L162.1 144.3L186.8 116.5Z" fill="#00101c" stroke="#00101c"></path><path d="M186.8 116.5L162.1 144.3L194.5 162.6Z" fill="#297ea6" stroke="#297ea6"></path><path d="M823.6 429.4L847.6 489.7L832.3 427.4Z" fill="#19435d" stroke="#19435d"></path><path d="M760.3 467.5L813.6 425.5L708.9 439.5Z" fill="#0c2435" stroke="#0c2435"></path><path d="M813.6 425.5L821.3 411.2L782.9 333.1Z" fill="#19435d" stroke="#19435d"></path><path d="M748.5 37.2L713.5 79.3L759.9 37.2Z" fill="#15384f" stroke="#15384f"></path><path d="M81.4 302.9L132.1 354.1L148.5 310.1Z" fill="#0c2435" stroke="#0c2435"></path><path d="M179.1 421.5L145.1 452.4L208.8 457.4Z" fill="#15384f" stroke="#15384f"></path><path d="M118.7 231.8L128.7 243.9L179.5 212.8Z" fill="#081a28" stroke="#081a28"></path><path d="M139.7 290.1L81.4 302.9L148.5 310.1Z" fill="#112e42" stroke="#112e42"></path><path d="M157.1 90.2L157.5 132.3L186.8 116.5Z" fill="#15384f" stroke="#15384f"></path><path d="M138.1 144.6L118.7 231.8L179.5 212.8Z" fill="#19435d" stroke="#19435d"></path><path d="M759.9 37.2L764.9 156.6L780.9 156.5Z" fill="#297ea6" stroke="#297ea6"></path><path d="M823.6 429.4L760.3 467.5L842.3 491.7Z" fill="#19435d" stroke="#19435d"></path><path d="M813.6 425.5L823.6 429.4L821.3 411.2Z" fill="#0c2435" stroke="#0c2435"></path><path d="M821.3 411.2L860.6 311.1L810.6 321.2Z" fill="#205a7a" stroke="#205a7a"></path><path d="M138.1 144.6L179.5 212.8L162.1 144.3Z" fill="#205a7a" stroke="#205a7a"></path><path d="M128.7 243.9L92.4 242.8L139.7 290.1Z" fill="#15384f" stroke="#15384f"></path><path d="M235.5 580.8L279.6 541.7L245.8 533.8Z" fill="#205a7a" stroke="#205a7a"></path><path d="M235.5 580.8L282.2 600L288.6 554.8Z" fill="#15384f" stroke="#15384f"></path><path d="M823.3 51.3L759.9 37.2L780.9 156.5Z" fill="#0c2435" stroke="#0c2435"></path><path d="M748.5 37.2L773.9 0L698.2 0Z" fill="#19435d" stroke="#19435d"></path><path d="M766.9 562.8L760.3 467.5L728.9 500.7Z" fill="#19435d" stroke="#19435d"></path><path d="M823.6 429.4L832.3 427.4L821.3 411.2Z" fill="#19435d" stroke="#19435d"></path><path d="M900 376.4L860.6 311.1L821.3 411.2Z" fill="#0c2435" stroke="#0c2435"></path><path d="M837.6 250.8L861.6 206.6L825.3 214.8Z" fill="#081a28" stroke="#081a28"></path><path d="M130.7 132.6L138.1 144.6L157.5 132.3Z" fill="#205a7a" stroke="#205a7a"></path><path d="M157.5 132.3L138.1 144.6L162.1 144.3Z" fill="#00101c" stroke="#00101c"></path><path d="M97.4 428.4L145.1 452.4L179.1 421.5Z" fill="#0c2435" stroke="#0c2435"></path><path d="M205.8 490.5L187.1 527.7L245.8 533.8Z" fill="#277297" stroke="#277297"></path><path d="M161.5 43.2L224.8 92.2L281.6 29.2Z" fill="#1d4e6b" stroke="#1d4e6b"></path><path d="M145.1 452.4L187.1 527.7L205.8 490.5Z" fill="#246688" stroke="#246688"></path><path d="M162.5 85.5L157.1 90.2L186.8 116.5Z" fill="#0c2435" stroke="#0c2435"></path><path d="M900 298.1L861.6 206.6L837.6 250.8Z" fill="#1d4e6b" stroke="#1d4e6b"></path><path d="M825.3 214.8L839.6 131.3L780.9 156.5Z" fill="#205a7a" stroke="#205a7a"></path><path d="M187.1 527.7L235.5 580.8L245.8 533.8Z" fill="#081a28" stroke="#081a28"></path><path d="M861.6 206.6L839.6 131.3L825.3 214.8Z" fill="#19435d" stroke="#19435d"></path><path d="M157.1 90.2L130.7 132.6L157.5 132.3Z" fill="#246688" stroke="#246688"></path><path d="M95.4 141.5L92.4 242.8L118.7 231.8Z" fill="#15384f" stroke="#15384f"></path><path d="M620.2 600L717.9 600L666.2 568.8Z" fill="#19435d" stroke="#19435d"></path><path d="M666.2 568.8L717.9 600L687.5 541.7Z" fill="#1d4e6b" stroke="#1d4e6b"></path><path d="M732.5 600L766.9 562.8L687.5 541.7Z" fill="#1d4e6b" stroke="#1d4e6b"></path><path d="M95.4 141.5L118.7 231.8L138.1 144.6Z" fill="#277297" stroke="#277297"></path><path d="M118.7 231.8L92.4 242.8L128.7 243.9Z" fill="#112e42" stroke="#112e42"></path><path d="M132.1 354.1L97.4 428.4L179.1 421.5Z" fill="#081a28" stroke="#081a28"></path><path d="M717.9 600L732.5 600L687.5 541.7Z" fill="#15384f" stroke="#15384f"></path><path d="M92.4 242.8L81.4 302.9L139.7 290.1Z" fill="#1d4e6b" stroke="#1d4e6b"></path><path d="M187.5 600L224.8 600L235.5 580.8Z" fill="#00101c" stroke="#00101c"></path><path d="M235.5 580.8L224.8 600L282.2 600Z" fill="#19435d" stroke="#19435d"></path><path d="M187.5 600L235.5 580.8L187.1 527.7Z" fill="#081a28" stroke="#081a28"></path><path d="M111.7 93.5L95.4 141.5L130.7 132.6Z" fill="#00101c" stroke="#00101c"></path><path d="M130.7 132.6L95.4 141.5L138.1 144.6Z" fill="#0c2435" stroke="#0c2435"></path><path d="M162.5 85.5L142.7 45.2L157.1 90.2Z" fill="#277297" stroke="#277297"></path><path d="M165.5 0L161.5 43.2L281.6 29.2Z" fill="#15384f" stroke="#15384f"></path><path d="M788.3 0L773.9 0L759.9 37.2Z" fill="#1d4e6b" stroke="#1d4e6b"></path><path d="M759.9 37.2L773.9 0L748.5 37.2Z" fill="#277297" stroke="#277297"></path><path d="M861.6 206.6L877.6 172.5L839.6 131.3Z" fill="#15384f" stroke="#15384f"></path><path d="M839.6 131.3L823.3 51.3L780.9 156.5Z" fill="#112e42" stroke="#112e42"></path><path d="M900 198.8L877.6 172.5L861.6 206.6Z" fill="#0c2435" stroke="#0c2435"></path><path d="M847.6 489.7L842.3 491.7L900 537.8Z" fill="#205a7a" stroke="#205a7a"></path><path d="M766.9 562.8L842.3 491.7L760.3 467.5Z" fill="#00101c" stroke="#00101c"></path><path d="M900 303.9L900 298.1L860.6 311.1Z" fill="#112e42" stroke="#112e42"></path><path d="M860.6 311.1L900 298.1L837.6 250.8Z" fill="#15384f" stroke="#15384f"></path><path d="M81.4 302.9L78.7 340.2L132.1 354.1Z" fill="#19435d" stroke="#19435d"></path><path d="M145.1 452.4L139.5 539.7L187.1 527.7Z" fill="#277297" stroke="#277297"></path><path d="M78.7 340.2L82.4 366.1L132.1 354.1Z" fill="#246688" stroke="#246688"></path><path d="M837.3 48.2L823.3 51.3L868.6 67.2Z" fill="#246688" stroke="#246688"></path><path d="M82.4 366.1L97.4 428.4L132.1 354.1Z" fill="#00101c" stroke="#00101c"></path><path d="M819.6 568.8L842.3 491.7L766.9 562.8Z" fill="#246688" stroke="#246688"></path><path d="M842.3 491.7L847.6 489.7L823.6 429.4Z" fill="#081a28" stroke="#081a28"></path><path d="M900 303.9L860.6 311.1L900 376.4Z" fill="#15384f" stroke="#15384f"></path><path d="M900 376.4L821.3 411.2L900 410.2Z" fill="#205a7a" stroke="#205a7a"></path><path d="M111.7 93.5L130.7 132.6L157.1 90.2Z" fill="#277297" stroke="#277297"></path><path d="M0 255.9L0 294.1L81.4 302.9Z" fill="#19435d" stroke="#19435d"></path><path d="M732.5 600L782.3 582.8L766.9 562.8Z" fill="#081a28" stroke="#081a28"></path><path d="M823.3 51.3L788.3 0L759.9 37.2Z" fill="#0c2435" stroke="#0c2435"></path><path d="M163.1 0L142.7 45.2L161.5 43.2Z" fill="#00101c" stroke="#00101c"></path><path d="M161.5 43.2L142.7 45.2L162.5 85.5Z" fill="#112e42" stroke="#112e42"></path><path d="M142.7 45.2L111.7 93.5L157.1 90.2Z" fill="#00101c" stroke="#00101c"></path><path d="M900 410.2L821.3 411.2L832.3 427.4Z" fill="#205a7a" stroke="#205a7a"></path><path d="M900 298.1L900 198.8L861.6 206.6Z" fill="#00101c" stroke="#00101c"></path><path d="M868.6 67.2L823.3 51.3L839.6 131.3Z" fill="#297ea6" stroke="#297ea6"></path><path d="M900 136.5L839.6 131.3L877.6 172.5Z" fill="#0c2435" stroke="#0c2435"></path><path d="M823.3 51.3L837.3 48.2L788.3 0Z" fill="#246688" stroke="#246688"></path><path d="M111.7 546.7L139.5 539.7L145.1 452.4Z" fill="#112e42" stroke="#112e42"></path><path d="M166.1 600L187.5 600L187.1 527.7Z" fill="#00101c" stroke="#00101c"></path><path d="M284.8 0L165.5 0L281.6 29.2Z" fill="#246688" stroke="#246688"></path><path d="M142.7 45.2L101.1 88.5L111.7 93.5Z" fill="#112e42" stroke="#112e42"></path><path d="M900 448.5L900 410.2L832.3 427.4Z" fill="#277297" stroke="#277297"></path><path d="M165.5 0L163.1 0L161.5 43.2Z" fill="#205a7a" stroke="#205a7a"></path><path d="M81.7 89.3L101.1 88.5L118.7 0Z" fill="#246688" stroke="#246688"></path><path d="M111.7 93.5L101.1 88.5L95.4 141.5Z" fill="#205a7a" stroke="#205a7a"></path><path d="M900 198.8L900 153.6L877.6 172.5Z" fill="#15384f" stroke="#15384f"></path><path d="M782.3 582.8L819.6 568.8L766.9 562.8Z" fill="#246688" stroke="#246688"></path><path d="M847.6 489.7L900 448.5L832.3 427.4Z" fill="#0c2435" stroke="#0c2435"></path><path d="M0 383.2L63.7 399.4L82.4 366.1Z" fill="#112e42" stroke="#112e42"></path><path d="M82.4 366.1L63.7 399.4L97.4 428.4Z" fill="#0c2435" stroke="#0c2435"></path><path d="M111.7 546.7L133.1 562.8L139.5 539.7Z" fill="#277297" stroke="#277297"></path><path d="M0 383.2L82.4 366.1L78.7 340.2Z" fill="#19435d" stroke="#19435d"></path><path d="M0 294.1L78.7 340.2L81.4 302.9Z" fill="#081a28" stroke="#081a28"></path><path d="M42.4 165.6L92.4 242.8L95.4 141.5Z" fill="#205a7a" stroke="#205a7a"></path><path d="M900 153.6L900 136.5L877.6 172.5Z" fill="#15384f" stroke="#15384f"></path><path d="M900 82.3L868.6 67.2L839.6 131.3Z" fill="#277297" stroke="#277297"></path><path d="M837.3 48.2L872.6 0L788.3 0Z" fill="#277297" stroke="#277297"></path><path d="M900 537.8L900 448.5L847.6 489.7Z" fill="#00101c" stroke="#00101c"></path><path d="M133.1 562.8L166.1 600L187.1 527.7Z" fill="#081a28" stroke="#081a28"></path><path d="M133.1 562.8L187.1 527.7L139.5 539.7Z" fill="#15384f" stroke="#15384f"></path><path d="M111.7 546.7L145.1 452.4L59.7 492.5Z" fill="#19435d" stroke="#19435d"></path><path d="M118.7 0L101.1 88.5L142.7 45.2Z" fill="#112e42" stroke="#112e42"></path><path d="M101.1 88.5L81.7 89.3L95.4 141.5Z" fill="#00101c" stroke="#00101c"></path><path d="M782.3 582.8L812.3 600L819.6 568.8Z" fill="#112e42" stroke="#112e42"></path><path d="M819.6 568.8L900 537.8L842.3 491.7Z" fill="#00101c" stroke="#00101c"></path><path d="M732.5 600L812.3 600L782.3 582.8Z" fill="#277297" stroke="#277297"></path><path d="M81.7 89.3L62.4 129.3L95.4 141.5Z" fill="#081a28" stroke="#081a28"></path><path d="M59.7 492.5L145.1 452.4L97.4 428.4Z" fill="#297ea6" stroke="#297ea6"></path><path d="M133.1 562.8L46.7 600L166.1 600Z" fill="#19435d" stroke="#19435d"></path><path d="M0 183.8L42.4 165.6L0 151.6Z" fill="#081a28" stroke="#081a28"></path><path d="M62.4 129.3L42.4 165.6L95.4 141.5Z" fill="#15384f" stroke="#15384f"></path><path d="M900 136.5L900 82.3L839.6 131.3Z" fill="#19435d" stroke="#19435d"></path><path d="M868.6 67.2L872.6 0L837.3 48.2Z" fill="#246688" stroke="#246688"></path><path d="M163.1 0L118.7 0L142.7 45.2Z" fill="#112e42" stroke="#112e42"></path><path d="M0 151.6L42.4 165.6L0 128.3Z" fill="#15384f" stroke="#15384f"></path><path d="M900 82.3L900 67.2L868.6 67.2Z" fill="#15384f" stroke="#15384f"></path><path d="M63.7 399.4L59.7 492.5L97.4 428.4Z" fill="#15384f" stroke="#15384f"></path><path d="M5.4 442.5L59.7 492.5L63.7 399.4Z" fill="#0c2435" stroke="#0c2435"></path><path d="M900 67.2L872.6 0L868.6 67.2Z" fill="#246688" stroke="#246688"></path><path d="M900 550.7L900 537.8L819.6 568.8Z" fill="#0c2435" stroke="#0c2435"></path><path d="M0 255.9L81.4 302.9L92.4 242.8Z" fill="#15384f" stroke="#15384f"></path><path d="M0 183.8L0 255.9L42.4 165.6Z" fill="#19435d" stroke="#19435d"></path><path d="M42.4 165.6L0 255.9L92.4 242.8Z" fill="#246688" stroke="#246688"></path><path d="M873.6 600L900 550.7L819.6 568.8Z" fill="#205a7a" stroke="#205a7a"></path><path d="M0 294.1L0 383.2L78.7 340.2Z" fill="#297ea6" stroke="#297ea6"></path><path d="M0 383.2L6.4 416.2L63.7 399.4Z" fill="#0c2435" stroke="#0c2435"></path><path d="M42.4 165.6L62.4 129.3L0 128.3Z" fill="#112e42" stroke="#112e42"></path><path d="M812.3 600L873.6 600L819.6 568.8Z" fill="#1d4e6b" stroke="#1d4e6b"></path><path d="M0 383.2L0 408.4L6.4 416.2Z" fill="#277297" stroke="#277297"></path><path d="M6.4 416.2L5.4 442.5L63.7 399.4Z" fill="#205a7a" stroke="#205a7a"></path><path d="M0 408.4L5.4 442.5L6.4 416.2Z" fill="#081a28" stroke="#081a28"></path><path d="M59.7 492.5L59.7 558.8L111.7 546.7Z" fill="#19435d" stroke="#19435d"></path><path d="M111.7 546.7L59.7 558.8L133.1 562.8Z" fill="#246688" stroke="#246688"></path><path d="M15.4 517.7L59.7 558.8L59.7 492.5Z" fill="#15384f" stroke="#15384f"></path><path d="M0 128.3L62.4 129.3L0 92.5Z" fill="#1d4e6b" stroke="#1d4e6b"></path><path d="M900 67.2L900 0L872.6 0Z" fill="#112e42" stroke="#112e42"></path><path d="M0 92.5L62.4 129.3L81.7 89.3Z" fill="#297ea6" stroke="#297ea6"></path><path d="M873.6 600L900 600L900 550.7Z" fill="#19435d" stroke="#19435d"></path><path d="M118.7 0L50.4 0L81.7 89.3Z" fill="#205a7a" stroke="#205a7a"></path><path d="M0 489.7L59.7 492.5L5.4 442.5Z" fill="#277297" stroke="#277297"></path><path d="M0 489.7L15.4 517.7L59.7 492.5Z" fill="#081a28" stroke="#081a28"></path><path d="M-2.6 64.2L0 92.5L81.7 89.3Z" fill="#081a28" stroke="#081a28"></path><path d="M0 408.4L0 489.7L5.4 442.5Z" fill="#297ea6" stroke="#297ea6"></path><path d="M0 489.7L0 512.5L15.4 517.7Z" fill="#112e42" stroke="#112e42"></path><path d="M46.4 600L46.7 600L59.7 558.8Z" fill="#0c2435" stroke="#0c2435"></path><path d="M0 40.2L-2.6 64.2L81.7 89.3Z" fill="#0c2435" stroke="#0c2435"></path><path d="M0 92.5L-2.6 64.2L0 128.3Z" fill="#277297" stroke="#277297"></path><path d="M0 128.3L-2.6 64.2L0 151.6Z" fill="#297ea6" stroke="#297ea6"></path><path d="M0 151.6L-2.6 64.2L0 183.8Z" fill="#15384f" stroke="#15384f"></path><path d="M0 183.8L-2.6 64.2L0 255.9Z" fill="#246688" stroke="#246688"></path><path d="M0 255.9L-2.6 64.2L0 294.1Z" fill="#246688" stroke="#246688"></path><path d="M0 294.1L-2.6 64.2L0 383.2Z" fill="#297ea6" stroke="#297ea6"></path><path d="M0 383.2L-2.6 64.2L0 408.4Z" fill="#0c2435" stroke="#0c2435"></path><path d="M0 408.4L-2.6 64.2L0 489.7Z" fill="#15384f" stroke="#15384f"></path><path d="M0 489.7L-2.6 64.2L0 512.5Z" fill="#1d4e6b" stroke="#1d4e6b"></path><path d="M46.4 600L59.7 558.8L13.4 548.8Z" fill="#1d4e6b" stroke="#1d4e6b"></path><path d="M59.7 558.8L46.7 600L133.1 562.8Z" fill="#1d4e6b" stroke="#1d4e6b"></path><path d="M13.4 548.8L59.7 558.8L15.4 517.7Z" fill="#00101c" stroke="#00101c"></path><path d="M0 512.5L13.4 548.8L15.4 517.7Z" fill="#1d4e6b" stroke="#1d4e6b"></path><path d="M50.4 0L0 40.2L81.7 89.3Z" fill="#205a7a" stroke="#205a7a"></path><path d="M-2.6 64.2L0 576.8L0 512.5Z" fill="#00101c" stroke="#00101c"></path><path d="M0 512.5L0 576.8L13.4 548.8Z" fill="#277297" stroke="#277297"></path><path d="M13.4 548.8L0 576.8L46.4 600Z" fill="#00101c" stroke="#00101c"></path><path d="M0 40.2L0 0L-2.6 64.2Z" fill="#1d4e6b" stroke="#1d4e6b"></path><path d="M50.4 0L0 0L0 40.2Z" fill="#00101c" stroke="#00101c"></path><path d="M-2.6 64.2L0 600L0 576.8Z" fill="#277297" stroke="#277297"></path><path d="M0 576.8L0 600L46.4 600Z" fill="#205a7a" stroke="#205a7a"></path></g></svg>