<svg id="visual" viewBox="0 0 900 600" width="900" height="600" xmlns="http://www.w3.org/2000/svg" xmlns:xlink="http://www.w3.org/1999/xlink" version="1.1"><rect x="0" y="0" width="900" height="600" fill="#001220"></rect><path d="M405 600L407.3 587.5C409.7 575 414.3 550 404.7 525C395 500 371 475 369.2 450C367.3 425 387.7 400 396.7 375C405.7 350 403.3 325 394.8 300C386.3 275 371.7 250 358.2 225C344.7 200 332.3 175 350.8 150C369.3 125 418.7 100 432.2 75C445.7 50 423.3 25 412.2 12.5L401 0L900 0L900 12.5C900 25 900 50 900 75C900 100 900 125 900 150C900 175 900 200 900 225C900 250 900 275 900 300C900 325 900 350 900 375C900 400 900 425 900 450C900 475 900 500 900 525C900 550 900 575 900 587.5L900 600Z" fill="#fa7268"></path><path d="M443 600L453 587.5C463 575 483 550 490.2 525C497.3 500 491.7 475 489.7 450C487.7 425 489.3 400 498.5 375C507.7 350 524.3 325 526 300C527.7 275 514.3 250 503.2 225C492 200 483 175 492.3 150C501.7 125 529.3 100 525.8 75C522.3 50 487.7 25 470.3 12.5L453 0L900 0L900 12.5C900 25 900 50 900 75C900 100 900 125 900 150C900 175 900 200 900 225C900 250 900 275 900 300C900 325 900 350 900 375C900 400 900 425 900 450C900 475 900 500 900 525C900 550 900 575 900 587.5L900 600Z" fill="#ef5f67"></path><path d="M629 600L633 587.5C637 575 645 550 634 525C623 500 593 475 582 450C571 425 579 400 572.7 375C566.3 350 545.7 325 548.3 300C551 275 577 250 581.8 225C586.7 200 570.3 175 565.3 150C560.3 125 566.7 100 565.5 75C564.3 50 555.7 25 551.3 12.5L547 0L900 0L900 12.5C900 25 900 50 900 75C900 100 900 125 900 150C900 175 900 200 900 225C900 250 900 275 900 300C900 325 900 350 900 375C900 400 900 425 900 450C900 475 900 500 900 525C900 550 900 575 900 587.5L900 600Z" fill="#e34c67"></path><path d="M696 600L697.8 587.5C699.7 575 703.3 550 693.5 525C683.7 500 660.3 475 657.8 450C655.3 425 673.7 400 682.5 375C691.3 350 690.7 325 685.2 300C679.7 275 669.3 250 664.8 225C660.3 200 661.7 175 664 150C666.3 125 669.7 100 674 75C678.3 50 683.7 25 686.3 12.5L689 0L900 0L900 12.5C900 25 900 50 900 75C900 100 900 125 900 150C900 175 900 200 900 225C900 250 900 275 900 300C900 325 900 350 900 375C900 400 900 425 900 450C900 475 900 500 900 525C900 550 900 575 900 587.5L900 600Z" fill="#d53867"></path><path d="M792 600L782.2 587.5C772.3 575 752.7 550 754.7 525C756.7 500 780.3 475 781 450C781.7 425 759.3 400 761.2 375C763 350 789 325 799 300C809 275 803 250 798.3 225C793.7 200 790.3 175 781.3 150C772.3 125 757.7 100 758.5 75C759.3 50 775.7 25 783.8 12.5L792 0L900 0L900 12.5C900 25 900 50 900 75C900 100 900 125 900 150C900 175 900 200 900 225C900 250 900 275 900 300C900 325 900 350 900 375C900 400 900 425 900 450C900 475 900 500 900 525C900 550 900 575 900 587.5L900 600Z" fill="#c62368"></path></svg>